HIERARCHY
ROOT Hips
{
 OFFSET 0.000000 0.000000 0.000000
 CHANNELS 6 Xposition Yposition Zposition Yrotation Xrotation Zrotation
 JOINT Chest
 {
  OFFSET 0.000000 9.724570 -1.080508
  CHANNELS 3 Yrotation Xrotation Zrotation
  JOINT Chest2
  {
   OFFSET 0.000000 10.781023 0.000000
   CHANNELS 3 Yrotation Xrotation Zrotation
   JOINT Chest3
   {
    OFFSET 0.000000 9.842877 -0.000488
    CHANNELS 3 Yrotation Xrotation Zrotation
    JOINT Chest4
    {
     OFFSET 0.000000 9.831886 -0.000488
     CHANNELS 3 Yrotation Xrotation Zrotation
     JOINT Neck
     {
      OFFSET 0.000000 13.778020 0.000000
      CHANNELS 3 Yrotation Xrotation Zrotation
      JOINT Head
      {
       OFFSET 0.000000 9.153561 0.001049
       CHANNELS 3 Yrotation Xrotation Zrotation
       End Site
       {
        OFFSET 0.000000 17.013053 0.000141
       }
      }
     }
     JOINT RightCollar
     {
      OFFSET -2.998440 7.723576 0.000000
      CHANNELS 3 Yrotation Xrotation Zrotation
      JOINT RightShoulder
      {
       OFFSET -14.001811 0.000000 0.000000
       CHANNELS 3 Yrotation Xrotation Zrotation
       JOINT RightElbow
       {
        OFFSET -30.003712 0.000000 0.000000
        CHANNELS 3 Yrotation Xrotation Zrotation
        JOINT RightWrist
        {
         OFFSET -24.523460 0.000000 0.000000
         CHANNELS 3 Yrotation Xrotation Zrotation
         End Site
         {
          OFFSET -18.302352 0.000000 0.000000
         }
        }
       }
      }
     }
     JOINT LeftCollar
     {
      OFFSET 2.998440 7.723576 0.000000
      CHANNELS 3 Yrotation Xrotation Zrotation
      JOINT LeftShoulder
      {
       OFFSET 14.001811 0.000000 0.000000
       CHANNELS 3 Yrotation Xrotation Zrotation
       JOINT LeftElbow
       {
        OFFSET 30.003712 0.000000 0.000000
        CHANNELS 3 Yrotation Xrotation Zrotation
        JOINT LeftWrist
        {
         OFFSET 24.523460 0.000000 0.000000
         CHANNELS 3 Yrotation Xrotation Zrotation
         End Site
         {
          OFFSET 18.302352 0.000000 0.000000
         }
        }
       }
      }
     }
    }
   }
  }
 }
 JOINT RightHip
 {
  OFFSET -7.997399 0.002291 -0.000255
  CHANNELS 3 Yrotation Xrotation Zrotation
  JOINT RightKnee
  {
   OFFSET 0.000000 -41.619678 -0.000115
   CHANNELS 3 Yrotation Xrotation Zrotation
   JOINT RightAnkle
   {
    OFFSET 0.000000 -40.601393 -0.000194
    CHANNELS 3 Yrotation Xrotation Zrotation
    JOINT RightToe
    {
     OFFSET 0.000000 -6.581369 14.895014
     CHANNELS 3 Yrotation Xrotation Zrotation
     End Site
     {
      OFFSET 0.000000 -1.508064 6.450961
     }
    }
   }
  }
 }
 JOINT LeftHip
 {
  OFFSET 7.997399 0.000098 -0.000011
  CHANNELS 3 Yrotation Xrotation Zrotation
  JOINT LeftKnee
  {
   OFFSET 0.000000 -41.619678 -0.000115
   CHANNELS 3 Yrotation Xrotation Zrotation
   JOINT LeftAnkle
   {
    OFFSET 0.000000 -40.601393 -0.000194
    CHANNELS 3 Yrotation Xrotation Zrotation
    JOINT LeftToe
    {
     OFFSET 0.000000 -6.581369 14.895014
     CHANNELS 3 Yrotation Xrotation Zrotation
     End Site
     {
      OFFSET 0.000000 -1.508064 6.450961
     }
    }
   }
  }
 }
}
MOTION
Frames: 14
Frame Time: 0.016667
0.000000 90.139245 0.000000 0.000000 6.340192 0.000000 0.000000 -6.340192 0.000000 0.000000 -5.826342 0.000000 0.000000 -0.005910 0.000000 0.000000 5.832252 0.000000 0.000000 12.610213 0.000000 0.000000 -9.243752 0.000000 0.000000 0.000000 0.000000 0.000000 0.000000 0.000000 2.309063 0.000000 0.000000 -2.309063 0.000000 0.000000 0.000000 0.000000 0.000000 0.000000 0.000000 0.000000 -2.309063 0.000000 0.000000 2.309063 0.000000 0.000000 0.000000 -3.591006 0.000000 0.000000 1.872585 0.000000 0.000000 -4.621771 0.000000 0.000000 0.000000 0.000000 0.000000 -3.587706 0.000000 0.000000 1.905768 0.000000 0.000000 -4.658254 0.000000 0.000000 0.000000 0.000000
-165.637780 90.689063 270.645679 101.762184 -7.593371 1.048604 0.783051 6.077228 -0.107556 0.354826 -3.125530 -0.058023 0.354694 2.694792 -0.021963 0.264222 7.857768 -0.018170 1.923974 14.365635 0.454143 3.441688 -9.338973 0.110144 1.066347 0.634910 11.432949 7.871900 -2.572556 73.447995 8.461912 -5.889120 6.201168 -0.526755 16.282849 6.537551 -1.538609 3.705157 -10.815502 -12.388205 -13.831422 -67.692377 -5.874505 -8.991877 -13.280466 2.421671 6.506939 2.566841 -12.804758 12.038589 -4.596641 -1.063069 0.699955 -0.897002 8.356024 -5.642133 2.392537 0.000134 -0.034640 0.008838 13.974452 13.204930 1.758466 -0.339587 0.276956 0.658088 7.096010 -3.748263 -0.698731 0.000257 -0.037549 -0.015102
-165.751699 90.691716 270.729795 101.762285 -7.601583 1.046522 0.775227 6.077694 -0.107259 0.351326 -3.125319 -0.057789 0.351196 2.695008 -0.022085 0.261592 7.857933 -0.018247 1.914301 14.356498 0.454404 3.423544 -9.356108 0.114162 1.068213 0.632911 11.427482 7.854738 -2.580221 73.449842 8.469271 -5.854371 6.204740 -0.536722 16.312954 6.538094 -1.538887 3.706542 -10.811303 -12.365396 -13.831790 -67.689485 -5.878147 -8.965764 -13.292699 2.429354 6.494802 2.551996 -12.782816 12.040410 -4.594898 -1.053974 0.715469 -0.887388 8.341690 -5.614801 2.372549 0.000262 -0.069491 0.017720 13.969353 13.199582 1.760178 -0.336769 0.294733 0.652016 7.088467 -3.728184 -0.686311 0.000523 -0.075325 -0.030291
-165.866304 90.694383 270.814418 101.762386 -7.609851 1.044428 0.767358 6.078169 -0.106962 0.347806 -3.125103 -0.057555 0.347678 2.695228 -0.022209 0.258947 7.858100 -0.018325 1.904570 14.347304 0.454670 3.405290 -9.373346 0.118211 1.070088 0.630894 11.421990 7.837475 -2.587929 73.451701 8.476677 -5.819415 6.208346 -0.546751 16.343228 6.538637 -1.539167 3.707932 -10.807085 -12.342449 -13.832157 -67.686572 -5.881823 -8.939492 -13.305006 2.437081 6.482597 2.537053 -12.760747 12.042249 -4.593140 -1.044817 0.731069 -0.877719 8.327252 -5.587307 2.352461 0.000384 -0.104550 0.026645 13.964226 13.194211 1.761899 -0.333937 0.312619 0.645910 7.080889 -3.707990 -0.673821 0.000797 -0.113324 -0.045565
-165.981581 90.697063 270.899536 101.762489 -7.618175 1.042324 0.759444 6.078652 -0.106666 0.344266 -3.124884 -0.057320 0.344140 2.695452 -0.022334 0.256286 7.858269 -0.018404 1.894784 14.338056 0.454940 3.386927 -9.390685 0.122291 1.071971 0.628858 11.416474 7.820114 -2.595678 73.453570 8.484128 -5.784255 6.211985 -0.556840 16.373666 6.539181 -1.539449 3.709328 -10.802847 -12.319367 -13.832522 -67.683638 -5.885530 -8.913064 -13.317386 2.444851 6.470326 2.522015 -12.738552 12.044106 -4.591368 -1.035598 0.746753 -0.867994 8.312711 -5.559653 2.332273 0.000499 -0.139812 0.035612 13.959071 13.188817 1.763627 -0.331092 0.330610 0.639772 7.073277 -3.687683 -0.661263 0.001079 -0.151542 -0.060921
-166.097518 90.699755 270.985140 101.762593 -7.626552 1.040210 0.751487 6.079143 -0.106370 0.340707 -3.124662 -0.057085 0.340582 2.695679 -0.022461 0.253611 7.858442 -0.018485 1.884943 14.328754 0.455213 3.368459 -9.408125 0.126402 1.073862 0.626804 11.410933 7.802655 -2.603467 73.455449 8.491625 -5.748896 6.215658 -0.566989 16.404265 6.539725 -1.539733 3.710731 -10.798590 -12.296151 -13.832884 -67.680686 -5.889270 -8.886483 -13.329836 2.452662 6.457991 2.506883 -12.716236 12.045982 -4.589582 -1.026318 0.762518 -0.858214 8.298069 -5.531843 2.311990 0.000607 -0.175274 0.044620 13.953888 13.183400 1.765363 -0.328236 0.348705 0.633602 7.065630 -3.667267 -0.648638 0.001370 -0.189975 -0.076359
-166.214100 90.702461 271.071219 101.762698 -7.634982 1.038085 0.743487 6.079641 -0.106074 0.337129 -3.124436 -0.056850 0.337006 2.695909 -0.022589 0.250922 7.858617 -0.018566 1.875048 14.319399 0.455492 3.349887 -9.425662 0.130543 1.075760 0.624731 11.405369 7.785101 -2.611296 73.457339 8.499166 -5.713342 6.219363 -0.577196 16.435023 6.540270 -1.540018 3.712138 -10.794315 -12.272805 -13.833244 -67.677713 -5.893042 -8.859753 -13.342357 2.460514 6.445592 2.491660 -12.693799 12.047875 -4.587781 -1.016980 0.778362 -0.848381 8.283326 -5.503880 2.291612 0.000709 -0.210932 0.053667 13.948677 13.177961 1.767107 -0.325366 0.366902 0.627400 7.057952 -3.646743 -0.635948 0.001669 -0.228618 -0.091876
-166.331313 90.705178 271.157764 101.762803 -7.643464 1.035949 0.735445 6.080148 -0.105779 0.333533 -3.124207 -0.056614 0.333411 2.696143 -0.022718 0.248218 7.858794 -0.018648 1.865101 14.309993 0.455774 3.331213 -9.443294 0.134713 1.077667 0.622641 11.399781 7.767453 -2.619163 73.459239 8.506751 -5.677596 6.223102 -0.587460 16.465935 6.540815 -1.540305 3.713552 -10.790021 -12.249332 -13.833602 -67.674722 -5.896846 -8.832876 -13.354946 2.468406 6.433132 2.476347 -12.671245 12.049785 -4.585965 -1.007584 0.794285 -0.838496 8.268485 -5.475766 2.271143 0.000804 -0.246781 0.062752 13.943441 13.172500 1.768858 -0.322485 0.385199 0.621168 7.050241 -3.626113 -0.623194 0.001977 -0.267467 -0.107471
-166.449145 90.707908 271.244765 101.762910 -7.651997 1.033804 0.727362 6.080661 -0.105484 0.329918 -3.123974 -0.056378 0.329798 2.696380 -0.022849 0.245501 7.858974 -0.018732 1.855103 14.300536 0.456061 3.312439 -9.461019 0.138914 1.079582 0.620534 11.394171 7.749715 -2.627068 73.461149 8.514379 -5.641664 6.226873 -0.597779 16.496999 6.541362 -1.540594 3.714971 -10.785709 -12.225734 -13.833957 -67.671712 -5.900681 -8.805857 -13.367602 2.476336 6.420611 2.460946 -12.648577 12.051711 -4.584136 -0.998131 0.810284 -0.828558 8.253547 -5.447506 2.250585 0.000892 -0.282818 0.071875 13.938178 13.167019 1.770616 -0.319592 0.403594 0.614906 7.042500 -3.605380 -0.610379 0.002294 -0.306517 -0.123140
-166.567582 90.710649 271.332212 101.763017 -7.660579 1.031649 0.719240 6.081182 -0.105189 0.326285 -3.123738 -0.056141 0.326167 2.696620 -0.022982 0.242770 7.859156 -0.018816 1.845054 14.291030 0.456352 3.293568 -9.478836 0.143143 1.081504 0.618409 11.388539 7.731887 -2.635010 73.463069 8.522050 -5.605550 6.230677 -0.608151 16.528211 6.541909 -1.540885 3.716396 -10.781379 -12.202014 -13.834310 -67.668684 -5.904547 -8.778698 -13.380324 2.484303 6.408031 2.445458 -12.625796 12.053654 -4.582293 -0.988622 0.826356 -0.818569 8.238514 -5.419102 2.229941 0.000973 -0.319039 0.081034 13.932890 13.161517 1.772382 -0.316688 0.422083 0.608615 7.034730 -3.584545 -0.597502 0.002619 -0.345764 -0.138884
-166.686610 90.713402 271.420094 101.763126 -7.669210 1.029485 0.711078 6.081711 -0.104895 0.322635 -3.123499 -0.055904 0.322519 2.696863 -0.023116 0.240027 7.859340 -0.018902 1.834956 14.281476 0.456647 3.274601 -9.496742 0.147402 1.083433 0.616268 11.382885 7.713971 -2.642988 73.464998 8.529761 -5.569257 6.234514 -0.618577 16.559568 6.542458 -1.541177 3.717826 -10.777033 -12.178174 -13.834660 -67.665639 -5.908444 -8.751402 -13.393109 2.492307 6.395393 2.429885 -12.602905 12.055613 -4.580436 -0.979059 0.842501 -0.808529 8.223386 -5.390556 2.209211 0.001046 -0.355439 0.090228 13.927576 13.155994 1.774154 -0.313772 0.440666 0.602295 7.026930 -3.563611 -0.584567 0.002953 -0.385205 -0.154699
-166.806215 90.716167 271.508402 101.763235 -7.677888 1.027311 0.702878 6.082246 -0.104602 0.318968 -3.123257 -0.055667 0.318853 2.697110 -0.023252 0.237270 7.859527 -0.018989 1.824810 14.271875 0.456947 3.255541 -9.514736 0.151690 1.085370 0.614110 11.377210 7.695971 -2.651000 73.466937 8.537514 -5.532790 6.238383 -0.629053 16.591067 6.543008 -1.541471 3.719261 -10.772670 -12.154219 -13.835008 -67.662575 -5.912371 -8.723973 -13.405958 2.500347 6.382699 2.414228 -12.579906 12.057588 -4.578565 -0.969442 0.858716 -0.798439 8.208167 -5.361873 2.188400 0.001113 -0.392014 0.099456 13.922239 13.150453 1.775934 -0.310846 0.459340 0.595946 7.019103 -3.542580 -0.571573 0.003296 -0.424834 -0.170584
-166.926385 90.718942 271.597126 101.763345 -7.686612 1.025128 0.694640 6.082788 -0.104309 0.315285 -3.123012 -0.055430 0.315171 2.697359 -0.023389 0.234501 7.859716 -0.019076 1.814618 14.262228 0.457251 3.236390 -9.532814 0.156005 1.087314 0.611936 11.371515 7.677886 -2.659046 73.468885 8.545306 -5.496153 6.242284 -0.639579 16.622704 6.543560 -1.541767 3.720702 -10.768290 -12.130149 -13.835353 -67.659495 -5.916329 -8.696414 -13.418868 2.508421 6.369950 2.398491 -12.556803 12.059577 -4.576681 -0.959774 0.875000 -0.788300 8.192856 -5.333056 2.167509 0.001172 -0.428761 0.108716 13.916877 13.144892 1.777720 -0.307909 0.478103 0.589571 7.011250 -3.521453 -0.558524 0.003648 -0.464647 -0.186537
-167.047105 90.721728 271.686256 101.763456 -7.695382 1.022937 0.686366 6.083336 -0.104017 0.311585 -3.122764 -0.055192 0.311473 2.697611 -0.023527 0.231720 7.859907 -0.019165 1.804380 14.252535 0.457559 3.217150 -9.550975 0.160349 1.089265 0.609747 11.365800 7.659720 -2.667126 73.470841 8.553138 -5.459350 6.246218 -0.650154 16.654476 6.544114 -1.542064 3.722147 -10.763895 -12.105969 -13.835695 -67.656399 -5.920317 -8.668728 -13.431837 2.516529 6.357148 2.382674 -12.533598 12.061581 -4.574784 -0.950054 0.891350 -0.778114 8.177456 -5.304107 2.146540 0.001223 -0.465675 0.118008 13.911492 13.139312 1.779512 -0.304961 0.496953 0.583168 7.003370 -3.500235 -0.545419 0.004009 -0.504640 -0.202556
